PathFileType	4	(X/Y/Z)	E:\Marcel_BSc\Ayumi_22_01_2025\22-01-2025\sumo_dl_0.trc
DataRate	CameraRate	NumFrames	NumMarkers	Units	OrigDataRate	OrigDataStartFrame	OrigNumFrames
200.0	200.0	4	48	mm	200.0	646	2582	
Frame#	Time	RUFIN			FHD			LBHD			RBHD			RBAR			LBAR			RSACR			LSACR			LASI			USACR			LTHI2			C7			CLAV			T10			RSHO			LSHO			LTHI1			LTHI3			LTIB1			LTIB2			LTIB3			LMMAL			LLMAL			LHEE			LMT1			LMT5			LMT3			RTHI1			RTHI2			RTHI3			RTIB1			RTIB3			RTIB2			RLMAL			RMMAL			RHEE			RMT5			RMT1			RMT3			LDUPA			LMUPA			LUUPA			LRAD			RRAD			RUL			RMUPA			RDUPA			RUUPA			
		X1	Y1	Z1	X2	Y2	Z2	X3	Y3	Z3	X4	Y4	Z4	X5	Y5	Z5	X6	Y6	Z6	X7	Y7	Z7	X8	Y8	Z8	X9	Y9	Z9	X10	Y10	Z10	X11	Y11	Z11	X12	Y12	Z12	X13	Y13	Z13	X14	Y14	Z14	X15	Y15	Z15	X16	Y16	Z16	X17	Y17	Z17	X18	Y18	Z18	X19	Y19	Z19	X20	Y20	Z20	X21	Y21	Z21	X22	Y22	Z22	X23	Y23	Z23	X24	Y24	Z24	X25	Y25	Z25	X26	Y26	Z26	X27	Y27	Z27	X28	Y28	Z28	X29	Y29	Z29	X30	Y30	Z30	X31	Y31	Z31	X32	Y32	Z32	X33	Y33	Z33	X34	Y34	Z34	X35	Y35	Z35	X36	Y36	Z36	X37	Y37	Z37	X38	Y38	Z38	X39	Y39	Z39	X40	Y40	Z40	X41	Y41	Z41	X42	Y42	Z42	X43	Y43	Z43	X44	Y44	Z44	X45	Y45	Z45	X46	Y46	Z46	X47	Y47	Z47	X48	Y48	Z48	
646	3.22	137.1508	371.90073	-1157.6008	-158.55127	1000.8339	-925.27026	-131.69666	1014.4119	-868.71173	-121.70023	1020.2144	-999.60571	221.49757	236.50403	-2070.9429	236.65619	250.36568	150.42265	483.5145	760.18488	-1012.6981	485.16528	765.2879	-939.77844				478.75522	773.5484	-977.55414	341.79874	527.78821	-604.68866	115.62405	1065.2554	-950.65991	87.157402	906.59808	-951.40704	350.89383	899.9762	-970.39789	57.188938	936.37878	-1094.9006	97.231735	952.5415	-794.53894	396.03247	533.00793	-643.17145	361.69052	482.86041	-617.52905	302.54938	244.48914	-495.64343	342.71735	239.1821	-525.6817	320.80249	182.46997	-502.36554	277.55441	70.110413	-552.32117	333.52051	74.068207	-503.48245	340.89371	34.029049	-558.06708	186.28693	44.785721	-439.44174				205.77632	42.241642	-411.85498	386.49203	525.1864	-1288.9572	332.84995	521.49823	-1328.2161	352.37457	474.83438	-1315.7515	296.14975	276.97922	-1430.5807	312.35266	214.96432	-1422.0074	335.34402	272.24768	-1398.8032	326.16241	74.447296	-1417.0063	251.96552	72.562614	-1387.1884	328.42944	29.891294	-1363.0667	250.82207	26.432772	-1537.5258	191.47882	35.418049	-1505.6243	214.36552	33.618382	-1527.0239	225.51732	786.36102	-736.6391	176.24306	781.58014	-743.70496	169.24901	843.08105	-741.54742	191.58821	462.31564	-701.7179	138.23242	442.67346	-1154.6366	144.1897	453.23441	-1216.3768	109.13969	847.41858	-1178.8054	121.90453	787.64264	-1194.1415	154.45702	859.7619	-1195.277
647	3.225	138.72206	368.81229	-1157.2966	-159.25368	997.58575	-924.91968	-132.32758	1011.3514	-868.39795	-122.43739	1016.7797	-999.34747	221.49109	236.53172	-2070.939	236.65549	250.37796	150.42381	483.7084	758.94818	-1012.5266	485.45813	763.88678	-939.65973				478.99957	772.28333	-977.37323	341.73636	527.49347	-604.3905	114.74094	1062.705	-950.64941	86.751884	903.95367	-951.32379	350.65936	898.46356	-970.29987	56.838619	933.14899	-1094.6761	96.216736	949.99799	-794.09991	395.99475	532.5484	-642.81665	361.54605	482.4895	-617.08478	302.37503	244.3382	-495.38126	342.57166	239.19354	-525.42188	320.67758	182.44072	-502.19214	277.51761	70.137993	-552.30725	333.46701	74.077789	-503.4411	340.9166	34.027786	-558.04657	186.28621	44.762154	-439.44046				205.7807	42.243835	-411.83014	386.61502	524.62738	-1288.8628	332.99237	521.20184	-1328.1377	352.48187	474.35922	-1315.8527	296.05811	276.95462	-1430.7035	312.30371	214.9119	-1422.1035	334.76871	272.3053	-1399.0103	326.13663	74.486618	-1417.0688	251.89763	72.574402	-1387.2228	328.4371	29.933413	-1363.0792	250.80449	26.449898	-1537.5245	191.45103	35.428932	-1505.6263	214.38219	33.61459	-1527.0166	225.4868	784.03754	-736.71893	176.21547	779.10693	-743.70703	169.02248	840.55963	-741.51129	193.30537	459.88705	-701.73053	139.44452	439.72879	-1154.1926	145.62346	449.80084	-1215.7688	108.78262	844.46857	-1178.6599	121.79253	784.54132	-1193.8633	154.03517	856.96759	-1195.0371
648	3.23	140.2283	366.03827	-1156.7815	-159.94603	994.36334	-924.56384	-133.02271	1008.3467	-868.11389	-123.15602	1013.4265	-999.0603	221.48981	236.50586	-2070.9553	236.65474	250.37256	150.42531	484.03461	757.55695	-1012.3859	485.76984	762.47137	-939.57068				479.17715	771.11115	-977.15771	341.68164	527.21698	-604.09009	113.79082	1060.1821	-950.56677	86.438339	901.35504	-951.22961	350.62747	897.45367	-969.82483	56.010822	930.35541	-1094.6189	95.788589	946.77679	-794.31006	395.98138	532.04626	-642.47827	361.47974	482.21075	-616.60168	302.22989	244.27916	-495.12057	342.39078	239.20145	-525.14966	320.64804	182.33028	-501.99216	277.45462	70.178162	-552.31348	333.4071	74.090981	-503.39954	340.86276	34.076942	-558.04907	186.29128	44.754456	-439.43881				205.76234	42.249592	-411.84756	386.95468	523.82355	-1289.0002	333.20105	520.7533	-1328.097	352.50519	473.95059	-1315.8807	295.96198	276.939	-1430.7858	312.21902	214.87852	-1422.2003	334.67963	272.28165	-1399.1169	326.1571	74.462997	-1417.1588	251.86649	72.573158	-1387.2211	328.44659	29.948792	-1363.0796	250.86406	26.497612	-1537.5563	191.4463	35.423168	-1505.6293	214.3652	33.580536	-1527.0209	225.44704	781.61121	-736.81	176.19618	776.64813	-743.48407	168.85104	838.01727	-741.43469	195.00348	457.47949	-701.72766	140.65323	436.69922	-1153.7877	145.97237	446.86911	-1215.537	108.38565	841.50043	-1178.4675	121.60159	781.58929	-1193.5449	153.70706	854.04694	-1194.8101
649	3.235	142.13271	363.54739	-1155.9537	-160.53407	991.10559	-924.28833	-133.66548	1005.2496	-867.85828	-123.8817	1010.1348	-998.79529	221.49603	236.54451	-2070.9387	236.66071	250.36824	150.42224	484.3504	756.11975	-1012.2474	485.88669	761.34302	-939.30493				479.53696	769.66528	-977.04126	341.58093	526.92535	-603.77533	112.93147	1057.826	-950.42621	86.198593	898.72577	-951.1969	350.42377	895.87134	-969.64435	55.479252	927.45947	-1094.42	95.267883	944.02301	-794.09332	395.9606	531.46582	-642.1073	361.37241	481.85837	-616.15912	301.94067	244.28822	-494.93436	342.13681	239.24466	-524.84387	320.53659	182.3495	-501.80249	277.43073	70.172241	-552.28986	333.36652	74.10817	-503.37183	340.91333	34.057434	-558.04504	186.29503	44.749363	-439.45071				205.73891	42.269253	-411.85205	387.09427	523.31458	-1288.8202	333.48151	520.3609	-1328.0134	352.59088	473.49924	-1315.8625	295.87585	276.91751	-1430.8906	312.37573	215.05096	-1422.2186	335.24451	272.25415	-1399.1868	326.11212	74.499725	-1417.2267	251.8455	72.591148	-1387.2705	328.46814	29.93247	-1363.0906	250.84442	26.498608	-1537.5547	191.49014	35.401127	-1505.6345	214.40228	33.584919	-1527.0067	225.45879	779.26312	-736.89545	176.21866	774.14404	-743.40216	168.53622	835.50385	-741.4054	196.68448	455.1239	-701.7027	141.88734	433.80591	-1153.4249	147.63756	444.08453	-1215.019	108.01136	838.54895	-1178.2755	121.47011	778.52533	-1193.2593	153.30038	851.18073	-1194.6476
